<?xml version="1.0" encoding="iso-8859-1"?>
<!-- Generator: Adobe Illustrator 19.0.0, SVG Export Plug-In . SVG Version: 6.00 Build 0)  -->
<svg version="1.1" id="Capa_1" xmlns="http://www.w3.org/2000/svg" xmlns:xlink="http://www.w3.org/1999/xlink" x="0px" y="0px"
	 viewBox="0 0 512 512" style="enable-background:new 0 0 512 512;" xml:space="preserve">
<path style="fill:#009954;" d="M267.615,81h-23.23c-7.928,0-14.377-6.06-14.377-14c0-7.939,6.449-14,14.377-14h34.392
	c1.773,0,3.216,1.208,3.216,2.988c0,8.284,6.716,14.88,15,14.88s15-6.535,15-14.819c0-18.323-14.9-33.048-33.216-33.048H271v-8
	c0-8.284-6.716-15-15-15s-15,6.716-15,15v7.661c-22.893,1.738-40.992,20.757-40.992,44.098c0,24.482,19.907,44.241,44.377,44.241
	h23.23c7.928,0,14.377,6.56,14.377,14.5c0,7.939-6.449,14.5-14.377,14.5h-34.392c-1.773,0-3.216-1.391-3.216-3.172
	c0-8.284-6.716-14.971-15-14.971s-15,6.673-15,14.957c0,18.323,14.9,33.186,33.216,33.186H241v9.611c0,8.284,6.716,15,15,15
	s15-6.716,15-15v-9.638c22.893-1.738,40.992-21.074,40.992-44.415C311.992,101.076,292.085,81,267.615,81z"/>
<g>
	<path style="fill:#00F085;" d="M244.385,111H256V81h-11.615c-7.928,0-14.377-6.06-14.377-14c0-7.939,6.449-14,14.377-14H256V0
		c-8.284,0-15,6.716-15,15v7.661c-22.893,1.738-40.992,20.757-40.992,44.098C200.008,91.241,219.915,111,244.385,111z"/>
	<path style="fill:#00F085;" d="M256,140h-22.776c-1.773,0-3.216-1.391-3.216-3.172c0-8.284-6.716-14.971-15-14.971
		s-15,6.673-15,14.957c0,18.323,14.9,33.186,33.216,33.186H241v9.611c0,8.284,6.716,15,15,15V140z"/>
</g>
<path style="fill:#7C8388;" d="M507.141,114.131c-2.235-3.566-5.866-6.03-10.007-6.788l-55.571-10.181
	c-8.146-1.493-15.964,3.902-17.458,12.051c-1.492,8.149,3.903,15.965,12.052,17.458l17.389,3.186l-202,125.604l-107.163-65.859
	c-4.097-2.519-9.154-2.919-13.599-1.077L10.108,238.562c-7.652,3.173-11.284,11.949-8.111,19.601
	c3.174,7.653,11.955,11.282,19.602,8.111L135.2,219.17l108.538,66.704c2.409,1.48,5.131,2.221,7.854,2.221
	c2.748,0,5.496-0.754,7.921-2.262l210.222-130.717l-4.826,17.447c-2.209,7.984,2.474,16.248,10.458,18.456
	c1.338,0.37,2.684,0.547,4.008,0.547c6.575,0,12.61-4.359,14.448-11.005l15.065-54.465
	C510.01,122.04,509.376,117.698,507.141,114.131z"/>
<path style="fill:#FF9F00;" d="M255.14,227.567c-25.099,0-45.519,20.424-45.519,45.528s20.42,45.528,45.519,45.528
	c25.1,0,45.52-20.424,45.52-45.528S280.239,227.567,255.14,227.567z"/>
<g>
	<path style="fill:#FFD154;" d="M255.14,227.567c-25.099,0-45.519,20.424-45.519,45.528s20.42,45.528,45.519,45.528V227.567z"/>
	<path style="fill:#FFD154;" d="M85.255,277.777c-4.18-2.78-9.5-3.285-14.131-1.348L9.22,302.348C3.643,304.683,0,310.138,0,316.184
		V497c0,8.284,6.716,15,15,15h61.892C85.176,512,92,505.284,92,497V290.266C92,285.245,89.435,280.559,85.255,277.777z"/>
</g>
<path style="fill:#00BDF7;" d="M189.074,315.517l-61.781-38.031c-4.629-2.844-10.154-2.963-14.895-0.312S105,284.833,105,290.266
	V497c0,8.284,6.266,15,14.55,15h61.892c8.284,0,14.559-6.716,14.559-15V328.297C196,323.084,193.515,318.246,189.074,315.517z"/>
<path style="fill:#E63950;" d="M399.316,261.549c-4.74-2.65-10.548-2.532-15.176,0.312l-61.942,38.03
	c-4.441,2.729-7.198,7.567-7.198,12.78V497c0,8.284,6.814,15,15.099,15h61.892c8.284,0,15.01-6.716,15.01-15V274.641
	C407,269.208,404.058,264.2,399.316,261.549z"/>
<path style="fill:#007A9F;" d="M504.321,200.802c-4.739-2.651-10.546-2.532-15.174,0.312l-61.946,38.031
	c-4.441,2.729-7.202,7.568-7.202,12.78V497c0,8.284,6.824,15,15.108,15H497c8.284,0,15-6.716,15-15V213.894
	C512,208.461,509.063,203.454,504.321,200.802z"/>
<path style="fill:#009954;" d="M210,360.333V497c0,8.284,6.716,15,15,15h61.429c8.048,0,14.571-6.524,14.571-14.571V360.333
	c0-8.284-6.716-15-15-15h-61C216.716,345.333,210,352.049,210,360.333z"/>
<path style="fill:#00F085;" d="M210,360.333V497c0,8.284,6.716,15,15,15h31V345.333h-31C216.716,345.333,210,352.049,210,360.333z"
	/>
<path style="fill:#E63950;" d="M136.528,156.853c-25.099,0-45.519,20.424-45.519,45.528s20.42,45.528,45.519,45.528
	c25.1,0,45.52-20.424,45.52-45.528S161.627,156.853,136.528,156.853z"/>
<path style="fill:#FF637B;" d="M136.528,156.853c-25.099,0-45.519,20.424-45.519,45.528s20.42,45.528,45.519,45.528V156.853z"/>
<g>
</g>
<g>
</g>
<g>
</g>
<g>
</g>
<g>
</g>
<g>
</g>
<g>
</g>
<g>
</g>
<g>
</g>
<g>
</g>
<g>
</g>
<g>
</g>
<g>
</g>
<g>
</g>
<g>
</g>
</svg>
