<?xml version="1.0" encoding="UTF-8"?>
<svg width="512px" height="407px" viewBox="0 0 512 407" version="1.1" xmlns="http://www.w3.org/2000/svg" xmlns:xlink="http://www.w3.org/1999/xlink">
    <!-- Generator: Sketch 50.2 (55047) - http://www.bohemiancoding.com/sketch -->
    <title>group</title>
    <desc>Created with Sketch.</desc>
    <defs></defs>
    <g id="Page-1" stroke="none" stroke-width="1" fill="none" fill-rule="evenodd">
        <g id="group" fill-rule="nonzero">
            <path d="M217.21,248.387 C209.518,240.4 199.568,234.501 188.184,231.773 L147.041,221.914 L147.024,221.941 L147.041,221.914 L147.041,196.797 L96.799,196.797 L96.799,221.995 L55.763,231.798 C28.93,238.208 10,262.191 10,289.779 L10,357 L100.962,357 L217.21,248.387 Z" id="Shape" fill="#78D2FA"></path>
            <polygon id="Shape" fill="#FFB487" points="148.12 196.797 148.12 222.592 122.046 285.047 96 222.681 96 196.797"></polygon>
            <path d="M177.955,110.261 L177.955,145.051 C177.955,175.979 152.882,201.051 121.953,201.051 C91.024,201.051 65.951,175.979 65.951,145.051 L65.951,110.261 L177.955,110.261 Z" id="Shape" fill="#FFCDAC"></path>
            <path d="M177.955,121.266 L177.955,107.785 C177.955,76.857 152.882,51.785 121.953,51.785 C91.024,51.785 65.951,76.857 65.951,107.785 L65.951,121.266 L104.554,121.266 C128.728,121.266 152.449,114.703 173.185,102.278" id="Shape" fill="#878791"></path>
            <path d="M294.79,248.387 C302.482,240.4 312.432,234.501 323.816,231.773 L364.959,221.914 L364.976,221.941 L364.959,221.914 L364.959,196.797 L415.201,196.797 L415.201,221.995 L456.237,231.798 C483.07,238.208 502,262.191 502,289.779 L502,357 L411.038,357 L294.79,248.387 Z" id="Shape" fill="#A5DC69"></path>
            <path d="M220.953,247.403 L163.647,261.135 C126.299,270.085 99.962,303.478 99.962,341.882 L99.962,397 L411.832,397 L411.832,341.93 C411.832,303.504 385.466,270.098 348.09,261.169 L290.933,247.515 L220.953,247.403 Z" id="Shape" fill="#FF5A5A"></path>
            <g id="Group" transform="translate(218.000000, 196.000000)" fill="#FFB487">
                <polygon id="Shape" points="198 0.797 198 26.681 171.954 89.047 145.88 26.592 145.88 0.797"></polygon>
                <path d="M38.01,131.738 L75.32,47.03 C72.551,42.38 70.973,36.968 70.973,31.238 L70.973,23.096 L5.007,23.096 L5.007,31.239 C5.007,36.959 3.435,42.363 0.674,47.008 L38.01,131.738 Z" id="Shape"></path>
            </g>
            <path d="M334.001,86.525 L334.001,140.344 C334.001,183.422 299.079,218.345 256.001,218.345 C212.923,218.345 178.001,183.423 178.001,140.344 L178.001,86.525 L334.001,86.525 Z" id="Shape" fill="#FFCDAC"></path>
            <path d="M256,10.437 C212.921,10.437 177.999,45.359 177.999,88.437 L177.999,107.214 L216.136,107.214 C241.487,107.214 265.538,95.989 281.82,76.558 L333.999,107.214 L333.999,88.437 C334.001,45.359 299.079,10.437 256,10.437 Z" id="Shape" fill="#F5B955"></path>
            <path d="M334.045,110.261 L334.045,145.051 C334.045,175.979 359.118,201.051 390.047,201.051 C420.976,201.051 446.049,175.979 446.049,145.051 L446.049,110.261 L334.045,110.261 Z" id="Shape" fill="#FFCDAC"></path>
            <path d="M334.045,121.266 L334.045,107.785 C334.045,76.857 359.118,51.785 390.047,51.785 C420.976,51.785 446.049,76.857 446.049,107.785 L446.049,121.266 L407.446,121.266 C383.272,121.266 359.551,114.703 338.815,102.278" id="Shape" fill="#878791"></path>
            <path d="M255.74,387 C253.109,387 250.529,388.07 248.67,389.93 C246.81,391.79 245.74,394.37 245.74,397 C245.74,399.63 246.809,402.21 248.67,404.07 C250.529,405.93 253.109,407 255.74,407 C258.37,407 260.95,405.93 262.809,404.07 C264.669,402.21 265.74,399.63 265.74,397 C265.74,394.37 264.67,391.79 262.809,389.93 C260.95,388.07 258.37,387 255.74,387 Z" id="Shape" fill="#000000"></path>
            <path d="M458.56,222.071 L425.202,214.102 L425.202,200.87 C443.718,189.167 456.05,168.528 456.05,145.052 L456.05,107.785 C456.05,71.392 426.442,41.785 390.048,41.785 C370.416,41.785 352.769,50.411 340.668,64.06 C330.07,27.357 296.173,0.437 256.104,0.437 L256.103,0.437 C215.969,0.437 182.026,27.442 171.487,64.235 C159.383,50.485 141.671,41.785 121.955,41.785 C85.561,41.785 55.953,71.393 55.953,107.785 L55.953,145.052 C55.953,168.529 68.285,189.168 86.801,200.87 L86.801,214.102 L53.443,222.071 C21.976,229.587 0,257.43 0,289.779 L0,357 C0,362.523 4.478,367 10,367 L89.963,367 L89.963,397 C89.963,402.523 94.441,407 99.963,407 L209.667,407 C215.189,407 219.667,402.523 219.667,397 C219.667,391.477 215.189,387 209.667,387 L165.024,387 L165.024,342.988 C165.024,337.465 160.546,332.988 155.024,332.988 C149.502,332.988 145.024,337.465 145.024,342.988 L145.024,387 L109.962,387 L109.962,341.882 C109.962,307.968 132.996,278.763 165.977,270.86 L215.16,259.074 L246.806,331.07 C248.402,334.701 251.993,337.046 255.959,337.046 L255.96,337.046 C259.926,337.046 263.518,334.702 265.114,331.071 L296.728,259.18 L345.768,270.895 C378.779,278.78 401.833,307.991 401.833,341.929 L401.833,353.088 C401.322,354.29 401.038,355.611 401.038,356.999 C401.038,358.387 401.322,359.709 401.833,360.91 L401.833,387 L366.976,387 L366.976,342.988 C366.976,337.465 362.498,332.988 356.976,332.988 C351.454,332.988 346.976,337.465 346.976,342.988 L346.976,387 L298.001,387 C292.479,387 288.001,391.477 288.001,397 C288.001,402.523 292.479,407 298.001,407 L411.833,407 C417.355,407 421.833,402.523 421.833,397 L421.833,367 L502,367 C507.522,367 512,362.523 512,357 L512,289.779 C512,257.43 490.024,229.587 458.56,222.071 Z M405.224,222.535 L389.956,259.094 L374.894,223.016 C374.934,222.653 374.963,222.288 374.963,221.922 C374.963,221.829 374.962,221.735 374.959,221.642 L374.959,209.292 C379.809,210.431 384.855,211.052 390.047,211.052 C395.262,211.052 400.332,210.425 405.201,209.276 L405.201,221.994 C405.201,222.176 405.214,222.355 405.224,222.535 Z M210.953,230.568 C204.675,226.674 197.787,223.791 190.515,222.049 L157.041,214.028 L157.041,200.913 C165.366,195.666 172.437,188.614 177.708,180.306 C185.247,195.035 196.818,207.369 210.953,215.853 L210.953,230.568 Z M188.1,140.345 L188.1,117.215 L216.238,117.215 C241.762,117.215 265.953,107.127 283.825,89.274 L324.046,112.903 L324.046,142.692 C322.802,179.103 292.813,208.346 256.103,208.346 C218.605,208.345 188.1,177.84 188.1,140.345 Z M300.934,216.041 C315.156,207.586 326.808,195.243 334.405,180.482 C339.665,188.713 346.694,195.702 354.959,200.913 L354.959,214.028 L321.485,222.049 C314.169,223.802 307.242,226.711 300.933,230.641 L300.933,216.041 L300.934,216.041 Z M390.047,191.052 C364.682,191.052 344.045,170.416 344.045,145.052 L344.045,143.42 C344.08,142.399 344.105,116.532 344.105,116.532 C363.764,126.2 385.437,131.267 407.447,131.267 L436.05,131.267 L436.05,145.053 C436.049,170.417 415.412,191.052 390.047,191.052 Z M390.047,61.785 C415.412,61.785 436.049,82.421 436.049,107.785 L436.049,110.261 L436.049,111.266 L407.446,111.266 C385.84,111.266 364.609,105.593 345.898,94.84 C351.504,75.758 369.174,61.785 390.047,61.785 Z M188.1,88.438 C188.1,50.942 218.606,20.438 256.103,20.438 C293.599,20.438 324.105,50.943 324.105,88.438 L324.105,89.742 L286.99,67.937 C282.779,65.462 277.397,66.393 274.26,70.136 C259.84,87.344 238.692,97.214 216.239,97.214 L188.1,97.214 L188.1,88.438 Z M75.951,107.785 C75.951,82.42 96.588,61.785 121.953,61.785 C142.826,61.785 160.496,75.758 166.101,94.841 C147.39,105.593 126.16,111.267 104.553,111.267 L75.951,111.267 L75.951,110.262 L75.951,107.785 Z M75.951,131.266 L104.554,131.266 C126.586,131.266 148.281,126.19 167.955,116.503 L167.955,145.052 C167.955,170.417 147.318,191.052 121.953,191.052 C96.588,191.052 75.951,170.416 75.951,145.052 C75.951,145.052 75.951,131.266 75.951,131.266 Z M121.953,211.052 C127.145,211.052 132.191,210.43 137.041,209.292 L137.041,221.362 C137.03,221.55 137.025,221.738 137.025,221.926 C137.025,222.241 137.055,222.554 137.085,222.867 L121.955,259.094 L106.768,222.715 C106.785,222.476 106.799,222.237 106.799,221.995 L106.799,209.277 C111.668,210.425 116.738,211.052 121.953,211.052 Z M89.963,341.882 L89.963,347 L60,347 L60,302.571 C60,297.048 55.522,292.571 50,292.571 C44.478,292.571 40,297.048 40,302.571 L40,347 L20,347 L20,289.779 C20,266.724 35.662,246.881 58.087,241.524 L89.785,233.951 L110.473,283.506 C97.534,299.58 89.963,319.954 89.963,341.882 Z M161.317,251.411 C155.412,252.826 149.769,254.795 144.411,257.223 L154.151,233.901 L185.854,241.498 C188.313,242.087 190.709,242.866 193.028,243.812 L161.317,251.411 Z M255.962,302.199 L230.953,245.302 L230.953,224.678 C238.925,227.06 247.366,228.345 256.102,228.345 C264.722,228.345 273.055,227.093 280.933,224.772 L280.933,245.413 L255.962,302.199 Z M318.789,243.888 C321.165,242.908 323.622,242.103 326.146,241.498 L357.772,233.92 L367.552,257.346 C362.125,254.874 356.404,252.875 350.414,251.444 L318.789,243.888 Z M492,347 L472,347 L472,302.571 C472,297.048 467.522,292.571 462,292.571 C456.478,292.571 452,297.048 452,302.571 L452,347 L421.833,347 L421.833,341.93 C421.833,320.031 414.287,299.685 401.385,283.625 L422.138,233.933 L453.913,241.524 C476.338,246.881 492,266.724 492,289.779 L492,347 Z" id="Shape" fill="#000000"></path>
            <path d="M222.46,126.25 C219.83,126.25 217.25,127.32 215.39,129.18 C213.53,131.04 212.46,133.62 212.46,136.25 C212.46,138.88 213.529,141.46 215.39,143.32 C217.251,145.18 219.83,146.25 222.46,146.25 C225.1,146.25 227.67,145.18 229.529,143.32 C231.399,141.46 232.46,138.88 232.46,136.25 C232.46,133.62 231.399,131.04 229.529,129.18 C227.67,127.32 225.09,126.25 222.46,126.25 Z" id="Shape" fill="#000000"></path>
            <path d="M289.33,146.25 C291.96,146.25 294.54,145.18 296.399,143.32 C298.269,141.46 299.33,138.88 299.33,136.25 C299.33,133.62 298.269,131.04 296.399,129.18 C294.54,127.32 291.96,126.25 289.33,126.25 C286.7,126.25 284.12,127.32 282.26,129.18 C280.4,131.04 279.33,133.62 279.33,136.25 C279.33,138.88 280.399,141.46 282.26,143.32 C284.121,145.18 286.7,146.25 289.33,146.25 Z" id="Shape" fill="#000000"></path>
            <path d="M275.247,162.842 C271.341,158.937 265.011,158.937 261.104,162.842 C258.147,165.799 253.336,165.799 250.379,162.842 C246.473,158.937 240.143,158.937 236.236,162.842 C232.331,166.747 232.331,173.079 236.236,176.985 C241.614,182.362 248.677,185.051 255.741,185.051 C262.805,185.051 269.868,182.363 275.246,176.985 C279.152,173.079 279.152,166.747 275.247,162.842 Z" id="Shape" fill="#000000"></path>
        </g>
    </g>
</svg>